<svg xmlns="http://www.w3.org/2000/svg" viewBox="0 0 64 64" role="img" aria-label="StudyHub">
  <!-- connectors -->
  <g stroke="#082038" stroke-width="4" stroke-linecap="round">
    <line x1="32" y1="30" x2="32" y2="11"/>
    <line x1="32" y1="30" x2="15" y2="16"/>
    <line x1="32" y1="30" x2="49" y2="16"/>
    <line x1="32" y1="30" x2="10" y2="28"/>
    <line x1="32" y1="30" x2="54" y2="28"/>
  </g>
  <!-- radiating dots -->
  <circle cx="32" cy="9" r="5" fill="#b81020"/>
  <circle cx="10" cy="28" r="5" fill="#b81020"/>
  <circle cx="54" cy="28" r="5" fill="#b81020"/>
  <circle cx="15" cy="15" r="5" fill="#082038"/>
  <circle cx="49" cy="15" r="5" fill="#082038"/>
  <!-- open book -->
  <path d="M32 40 C24 35 15 35 8 37 L8 52 C15 50 24 50 32 53 C40 50 49 50 56 52 L56 37 C49 35 40 35 32 40 Z"
        fill="#082038"/>
  <path d="M32 40 L32 53" stroke="#cdd6df" stroke-width="1.5" fill="none"/>
  <!-- central hub -->
  <circle cx="32" cy="30" r="7" fill="#082038"/>
  <circle cx="32" cy="30" r="3" fill="#eef2f6"/>
</svg>
